<?xml version="1.0" encoding="UTF-8"?>
<svg version="1.1" xmlns="http://www.w3.org/2000/svg" width="330" height="280">
<path d="M0 0 C0.64179199 0.21430664 1.28358398 0.42861328 1.94482422 0.64941406 C15.96980602 5.45618009 27.92709379 13.19604537 39 23 C39.70769531 23.62390625 40.41539062 24.2478125 41.14453125 24.890625 C58.21130982 40.91387273 69.43999537 66.07740675 70.23828125 89.421875 C70.78737654 120.48638712 62.00185568 146.27484167 40.25 169.0625 C26.69196368 182.14666321 11.0633704 190.22194718 -7 195 C-7.86882812 195.23460937 -8.73765625 195.46921875 -9.6328125 195.7109375 C-36.52641879 202.00130643 -63.57078651 195.2803222 -86.80078125 181.31640625 C-109.60534751 166.149733 -124.48045685 143.4734503 -130.875 117.0625 C-135.53521221 90.66393261 -130.97902114 62.82791061 -115.8125 40.484375 C-98.92172043 17.33235818 -76.51722307 1.84960493 -48.14819336 -3.54199219 C-32.31104152 -5.84602451 -15.19490289 -5.1019382 0 0 Z " fill="#BD1423" transform="translate(194,12)"/>
<path d="M0 0 C2.21888872 3.32833307 3.08746683 6.49763639 4.0625 10.3125 C4.23587891 10.96412109 4.40925781 11.61574219 4.58789062 12.28710938 C11.21435361 37.65046771 6.73936241 64.36786239 -5.7265625 87.15625 C-20.7478025 111.57433877 -42.48180613 127.72099388 -70 135 C-70.86882812 135.23460937 -71.73765625 135.46921875 -72.6328125 135.7109375 C-99.52641879 142.00130643 -126.57078651 135.2803222 -149.80078125 121.31640625 C-172.60534751 106.149733 -187.48045685 83.4734503 -193.875 57.0625 C-196.11017308 44.78219616 -196.63023556 30.23907996 -194 18 C-193.67 18.66 -193.34 19.32 -193 20 C-187.62831963 19.95553625 -182.25778018 19.88538221 -176.88671875 19.79248047 C-175.06356946 19.76443698 -173.24030234 19.74314064 -171.41699219 19.72900391 C-157.2099998 19.75725583 -157.2099998 19.75725583 -144 15 C-142.79233361 14.41528716 -141.58407685 13.83179068 -140.375 13.25 C-139.59125 12.8375 -138.8075 12.425 -138 12 C-137.63447197 13.41377782 -137.28304505 14.83120576 -136.9375 16.25 C-136.64166016 17.43335938 -136.64166016 17.43335938 -136.33984375 18.640625 C-135.75653963 22.69023062 -136.56954472 24.40043729 -138.96875 27.7421875 C-139.80839322 28.78976322 -140.65241972 29.8338356 -141.5 30.875 C-152.27214493 44.54547118 -164.53588626 60.36428335 -163.546875 78.546875 C-162.39176931 85.84054236 -159.74505272 90.95987878 -153.9375 95.5625 C-149.01449474 99.00372942 -143.94813261 99.72257245 -138 99 C-132.95325756 97.67943573 -129.11388002 95.80862483 -126.125 91.4375 C-121.08514545 81.60317707 -120.55235164 71.89215489 -120.6875 61 C-120.68672314 59.6178376 -120.68492303 58.23567542 -120.68212891 56.85351562 C-120.70381155 50.027096 -121.1184189 43.52356095 -122.43383789 36.80664062 C-124.12370112 27.97109672 -124.12370112 27.97109672 -121.75292969 23.8125 C-118.47787222 19.51482646 -114.68375889 15.87379095 -110.54394531 12.41601562 C-108.7508095 10.8843449 -108.7508095 10.8843449 -107 8 C-106.34 8 -105.68 8 -105 8 C-97.4315061 35.52179599 -97.4315061 35.52179599 -96.5625 48.75 C-96.29025956 51.91546242 -96.04727633 52.92739707 -94.25 55.6875 C-92.0652333 57.21519492 -92.0652333 57.21519492 -89.4375 57 C-84.44643195 54.95238234 -82.98468708 50.00372439 -80.96875 45.29296875 C-80.69156128 44.64934891 -80.41437256 44.00572906 -80.12878418 43.34260559 C-79.24746756 41.29302954 -78.37363031 39.24036239 -77.5 37.1875 C-76.91325316 35.81945002 -76.32601818 34.45160929 -75.73828125 33.08398438 C-74.15302104 29.39180443 -72.5762796 25.69602353 -71 22 C-70.00093264 19.66626558 -69.00056303 17.33309379 -68 15 C-67.34 15 -66.68 15 -66 15 C-64.50565589 18.92824358 -63.01238126 22.85689167 -61.52001953 26.78588867 C-61.01411545 28.11737561 -60.50793891 29.44875907 -60.00146484 30.7800293 C-59.26585141 32.7137458 -58.53124565 34.64784247 -57.796875 36.58203125 C-57.55642456 37.21384308 -57.31597412 37.84565491 -57.0682373 38.49661255 C-55.25391862 43.28100655 -53.53300722 48.09409247 -51.86816406 52.93237305 C-51.08178034 55.17036375 -51.08178034 55.17036375 -49 57 C-46 57.41666667 -46 57.41666667 -43 57 C-40.74893749 53.62340624 -40.4591259 51.5544979 -39.88671875 47.56640625 C-39.69013672 46.27669922 -39.49355469 44.98699219 -39.29101562 43.65820312 C-38.98904676 41.62556155 -38.69174981 39.59250445 -38.40356445 37.55786133 C-36.78026949 26.22545109 -34.23264122 15.16134554 -27 6 C-23.60102327 3.73401552 -22.43680827 3.76257346 -18.45703125 3.8046875 C-16.84731445 3.81435547 -16.84731445 3.81435547 -15.20507812 3.82421875 C-13.52575195 3.84935547 -13.52575195 3.84935547 -11.8125 3.875 C-10.68134766 3.88402344 -9.55019531 3.89304687 -8.38476562 3.90234375 C-5.58963172 3.92593138 -2.79492155 3.958847 0 4 C0 2.68 0 1.36 0 0 Z " fill="#7B0840" transform="translate(257,72)"/>
<path d="M0 0 C2.784293 2.784293 2.94910069 5.886863 3.625 9.625 C3.7590625 10.33140625 3.893125 11.0378125 4.03125 11.765625 C4.36110025 13.50911918 4.68146056 15.25440389 5 17 C5.66 17 6.32 17 7 17 C7.24363281 16.43152344 7.48726563 15.86304687 7.73828125 15.27734375 C11.37410729 8.7148466 18.48260998 2.62077223 25 -1 C28.625 -1.3125 28.625 -1.3125 32 0 C36.38437241 5.09482922 38.18808401 11.0798202 39.6875 17.5 C39.88666016 18.30308594 40.08582031 19.10617188 40.29101562 19.93359375 C40.66475827 21.44571973 41.03304026 22.95921706 41.39331055 24.47460938 C42.23766609 27.98930302 43.12048498 31.49394066 44 35 C44.43868408 33.9805127 44.87736816 32.96102539 45.3293457 31.91064453 C46.95852488 28.13098948 48.5994128 24.35651448 50.24389648 20.58349609 C50.95413763 18.94947089 51.66119121 17.31405635 52.36499023 15.67724609 C53.37690735 13.32537672 54.40016512 10.97873441 55.42578125 8.6328125 C55.73840408 7.89942657 56.05102692 7.16604065 56.37312317 6.41043091 C57.92279419 2.89597101 58.73210169 1.17859888 62 -1 C64.4375 -1.375 64.4375 -1.375 67 -1 C70.49620276 1.88987546 71.97537886 4.73791579 73.578125 8.9375 C74.01640625 10.07960938 74.4546875 11.22171875 74.90625 12.3984375 C75.3496875 13.58695313 75.793125 14.77546875 76.25 16 C76.70890625 17.18851563 77.1678125 18.37703125 77.640625 19.6015625 C81 28.45991443 81 28.45991443 81 33 C81.66 33 82.32 33 83 33 C83 31.845 83 30.69 83 29.5 C84.03894207 20.28121823 89.33924136 9.79670941 96.25 3.625 C100.66773185 0.21129812 103.99643019 -1.25535713 109.640625 -1.1953125 C110.71054688 -1.18886719 111.78046875 -1.18242188 112.8828125 -1.17578125 C113.99398437 -1.15902344 115.10515625 -1.14226563 116.25 -1.125 C117.37664062 -1.11597656 118.50328125 -1.10695312 119.6640625 -1.09765625 C122.44292365 -1.07410658 125.2213539 -1.0412168 128 -1 C130.41685712 3.22949995 131.34833144 6.12335991 131 11 C130.29915283 11.00410889 129.59830566 11.00821777 128.8762207 11.01245117 C125.68746795 11.04543372 122.50061395 11.11608332 119.3125 11.1875 C117.65831055 11.19620117 117.65831055 11.19620117 115.97070312 11.20507812 C109.45621128 11.3107954 109.45621128 11.3107954 103.859375 14.34375 C95.67295842 26.03863083 93.78871322 40.45203182 92.12670898 54.34863281 C91.10916982 62.17970171 91.10916982 62.17970171 88 65 C82.98679342 65.73109263 82.98679342 65.73109263 80.47460938 63.86987305 C78.45817326 61.31293857 77.53845802 58.69622583 76.40625 55.64453125 C76.17345337 55.02406418 75.94065674 54.40359711 75.70080566 53.764328 C74.95948622 51.78316265 74.2295881 49.79801157 73.5 47.8125 C73.00986772 46.49646405 72.51898949 45.18070567 72.02734375 43.86523438 C71.08901184 41.35189622 70.15785857 38.83628584 69.23046875 36.31884766 C68.23068411 33.6222063 67.20079448 30.94112247 66.15625 28.26171875 C65 25 65 25 65 22 C64.34 22 63.68 22 63 22 C62.84023682 23.03265991 62.84023682 23.03265991 62.67724609 24.08618164 C61.88340868 27.50162847 60.60914245 30.42549345 59.1640625 33.62109375 C58.88404388 34.24347427 58.60402527 34.8658548 58.31552124 35.50709534 C57.42350886 37.48611896 56.52423135 39.46174786 55.625 41.4375 C55.02819757 42.76086565 54.4318391 44.0844316 53.8359375 45.40820312 C45.77989508 63.24969569 45.77989508 63.24969569 43 65 C39.78592881 64.93304018 37.80840741 64.74136875 35.3984375 62.53125 C33.2917801 58.71808242 33.1013786 54.85029756 32.625 50.5625 C31.52505658 41.75830823 29.80606065 33.26379014 27.62548828 24.66625977 C27.3100708 23.41993774 27.3100708 23.41993774 26.98828125 22.1484375 C26.79790283 21.41802246 26.60752441 20.68760742 26.41137695 19.93505859 C26 18 26 18 26 15 C25.34 15 24.68 15 24 15 C23.74863281 15.58007812 23.49726563 16.16015625 23.23828125 16.7578125 C21.8455535 19.27966022 20.27063548 20.89144079 18.1875 22.875 C16.77089193 24.22858682 15.37674644 25.60588919 14 27 C13.07445312 27.91136719 12.14890625 28.82273437 11.1953125 29.76171875 C8.42478985 33.84848615 8.83162316 36.33552383 9.6875 40.9375 C10.87287958 49.23179425 11.30830682 57.46292224 11.35952759 65.83596802 C11.3746057 67.82303702 11.41294368 69.80988663 11.4519043 71.79663086 C11.47599988 81.98775929 10.21586852 93.39945048 3.5390625 101.6328125 C-0.58258973 105.2941787 -5.64440514 107.18209364 -11.125 107.4375 C-17.81172588 106.68254708 -23.50943821 104.09506049 -28 99 C-33.08884862 92.07648753 -34.48061164 84.53979012 -33.41113281 76.04589844 C-30.41429921 61.13291413 -19.14359966 46.71205836 -9.25 35.625 C-7.01852509 32.95811535 -6.061452 31.65428301 -5.734375 28.171875 C-5.97012291 25.68958817 -6.34558018 23.40294778 -7 21 C-10.41043496 21 -11.55584774 21.72211509 -14.4375 23.4375 C-18.69239437 25.96451848 -22.07513457 27.12962619 -27.03417969 27.11352539 C-28.20494049 27.11341209 -28.20494049 27.11341209 -29.39935303 27.11329651 C-30.23178528 27.10813522 -31.06421753 27.10297394 -31.921875 27.09765625 C-32.78186096 27.0962413 -33.64184692 27.09482635 -34.52789307 27.09336853 C-37.26863109 27.08778097 -40.00928676 27.07523075 -42.75 27.0625 C-44.6106759 27.05748339 -46.47135309 27.05292077 -48.33203125 27.04882812 C-52.88805246 27.03781561 -57.44401228 27.02055951 -62 27 C-62.17835515 22.45194365 -61.99785435 19.1205746 -60 15 C-59.01717041 14.9906543 -58.03434082 14.98130859 -57.02172852 14.97167969 C-53.33671572 14.93147385 -49.65251126 14.86563488 -45.96801758 14.79248047 C-44.38055899 14.76444659 -42.79296538 14.74314552 -41.20532227 14.72900391 C-31.023021 14.63291424 -22.22720837 14.53024725 -14.1875 7.5625 C-12.69807076 5.81774003 -11.24058952 4.04531254 -9.8125 2.25 C-6.66878669 -1.65254066 -4.68424748 -1.07347338 0 0 Z " fill="#FDFAFB" transform="translate(126,65)"/>
<path d="M0 0 C2.31 7.92 4.62 15.84 7 24 C7.763125 21.525 8.52625 19.05 9.3125 16.5 C11.04231992 10.92763738 12.85146296 5.42788305 15 0 C16.65 0 18.3 0 20 0 C22.6174707 7.59066503 24.83407095 15.27082172 27 23 C28.47503749 20.20577803 29.57052704 17.46873908 30.5078125 14.453125 C30.77207031 13.60878906 31.03632813 12.76445312 31.30859375 11.89453125 C31.57800781 11.02183594 31.84742188 10.14914063 32.125 9.25 C32.54072266 7.91775391 32.54072266 7.91775391 32.96484375 6.55859375 C33.64627239 4.37332258 34.32454602 2.18712381 35 0 C36.65 0 38.3 0 40 0 C39.67 2.64 39.34 5.28 39 8 C39.55429688 7.50628906 40.10859375 7.01257813 40.6796875 6.50390625 C41.40414062 5.86324219 42.12859375 5.22257813 42.875 4.5625 C43.95394531 3.60537109 43.95394531 3.60537109 45.0546875 2.62890625 C49.09603121 -0.75511047 52.90950474 -0.33229027 58.01953125 -0.27734375 C63.48207122 0.230966 66.34958613 3.13982073 69.8125 7.0625 C73.53849658 12.06598112 73.78947164 16.94439364 73 23 C71.31623732 27.26020988 68.73403365 30.24714497 65.5625 33.5 C59.39966251 36.09487894 52.03110225 36.4701667 45.67578125 34.15234375 C39.88014827 30.44364152 37.60764526 24.43058103 36 18 C34.35 23.61 32.7 29.22 31 35 C28.69 35 26.38 35 24 35 C23.823479 34.36908447 23.64695801 33.73816895 23.46508789 33.08813477 C22.66764242 30.24528492 21.86514132 27.40388702 21.0625 24.5625 C20.78470703 23.56927734 20.50691406 22.57605469 20.22070312 21.55273438 C19.81948242 20.13637695 19.81948242 20.13637695 19.41015625 18.69140625 C19.04096069 17.37958374 19.04096069 17.37958374 18.66430664 16.04125977 C18.18004206 14.02885154 18.18004206 14.02885154 17 13 C15.02 20.26 13.04 27.52 11 35 C8.69 35 6.38 35 4 35 C3.80365967 34.3201001 3.60731934 33.6402002 3.4050293 32.93969727 C2.50106718 29.81341748 1.59430221 26.68795712 0.6875 23.5625 C0.37876953 22.49322266 0.07003906 21.42394531 -0.24804688 20.32226562 C-2.03673659 14.16540733 -3.92661579 8.06704119 -6 2 C-6.48243164 2.68606323 -6.48243164 2.68606323 -6.97460938 3.38598633 C-13.25079451 12.30671951 -19.55501405 21.20011534 -26 30 C-19.73 30.33 -13.46 30.66 -7 31 C-7 32.32 -7 33.64 -7 35 C-16.57 35 -26.14 35 -36 35 C-34.55477562 32.10955124 -33.22993515 29.76570698 -31.390625 27.171875 C-30.88273437 26.45386719 -30.37484375 25.73585938 -29.8515625 24.99609375 C-29.32304688 24.25488281 -28.79453125 23.51367188 -28.25 22.75 C-27.73695312 22.02425781 -27.22390625 21.29851562 -26.6953125 20.55078125 C-23.21017914 15.63831941 -19.63123102 10.80540153 -16 6 C-22.27 5.67 -28.54 5.34 -35 5 C-35 3.35 -35 1.7 -35 0 C-30.98010377 -0.16861083 -26.95996993 -0.32905633 -22.93945312 -0.48217773 C-21.57380566 -0.53531137 -20.20824074 -0.59061539 -18.84277344 -0.64819336 C-16.87198012 -0.73090914 -14.9008304 -0.80498839 -12.9296875 -0.87890625 C-11.74616699 -0.9260376 -10.56264648 -0.97316895 -9.34326172 -1.02172852 C-6 -1 -6 -1 0 0 Z M45 9 C42.46184319 12.60254515 42 14.56988912 42 19 C42.79939318 23.53568739 44.69009037 25.84054081 48 29 C52.15750253 31.51638311 55.34646981 31.08028379 60 30 C63.34099922 28.55729579 64.7552986 27.34258197 66.875 24.375 C68.35437263 19.93688211 68.32900936 16.48340505 67 12 C64.96757487 8.49077675 62.93079881 6.31026627 59 5 C52.94517233 4.50370265 49.7452471 4.80652582 45 9 Z M37 11 C38 13 38 13 38 13 Z " fill="#000000" transform="translate(147,238)"/>
<path d="M0 0 C1.65 0 3.3 0 5 0 C5.33 8.91 5.66 17.82 6 27 C6.71027344 25.13472656 7.42054687 23.26945312 8.15234375 21.34765625 C8.84054593 19.54720812 9.52876677 17.74676705 10.2175293 15.9465332 C10.93268815 14.07509174 11.6450647 12.20258783 12.35742188 10.33007812 C12.80537109 9.16025391 13.25332031 7.99042969 13.71484375 6.78515625 C14.12855225 5.70113525 14.54226074 4.61711426 14.96850586 3.50024414 C16 1 16 1 17 0 C18.99958364 -0.04080783 21.00045254 -0.04254356 23 0 C24.69626135 4.17866945 26.3867488 8.35961127 28.07202148 12.54272461 C28.64565033 13.96425617 29.22082791 15.38516381 29.79760742 16.80541992 C30.62830985 18.85171452 31.45334272 20.90021799 32.27734375 22.94921875 C32.53466782 23.5796257 32.79199188 24.21003265 33.05711365 24.85954285 C34.40015234 28.21608365 35.42781468 31.4275476 36 35 C34.35 35 32.7 35 31 35 C30.35165346 33.730447 29.70642185 32.45930294 29.0625 31.1875 C28.52302734 30.12595703 28.52302734 30.12595703 27.97265625 29.04296875 C27 27 27 27 26 24 C20.96377705 24.47964028 17.97002985 25.87465736 14 29 C13.14650496 30.06752132 12.31297899 31.15130954 11.5 32.25 C9 35 9 35 5.6875 35.375 C4.3571875 35.189375 4.3571875 35.189375 3 35 C3 34.34 3 33.68 3 33 C2.01 33.66 1.02 34.32 0 35 C-5.08982143 35.81954752 -8.84905052 35.80566463 -13.125 32.8125 C-15.12206444 29.81690334 -15.50155542 28.51088794 -15 25 C-13.35 25 -11.7 25 -10 25 C-9.7525 25.639375 -9.505 26.27875 -9.25 26.9375 C-8.18268429 29.1375747 -8.18268429 29.1375747 -6.0625 29.875 C-3.68671748 30.22738107 -3.68671748 30.22738107 -1 28 C-0.48853802 25.09386566 -0.48853802 25.09386566 -0.48828125 21.6796875 C-0.45283203 20.42285156 -0.41738281 19.16601562 -0.38085938 17.87109375 C-0.35830078 16.55238281 -0.33574219 15.23367187 -0.3125 13.875 C-0.27933471 12.53512241 -0.24484578 11.19527689 -0.20898438 9.85546875 C-0.12626673 6.5703967 -0.05719307 3.28559968 0 0 Z M19 8 C18.30329584 9.78810766 17.61788811 11.58062052 16.9375 13.375 C16.55464844 14.37273437 16.17179687 15.37046875 15.77734375 16.3984375 C14.69092519 18.95231831 14.69092519 18.95231831 16 21 C18.64 20.01 21.28 19.02 24 18 C22.68 14.7 21.36 11.4 20 8 C19.67 8 19.34 8 19 8 Z " fill="#000000" transform="translate(42,238)"/>
<path d="M0 0 C0.33 0 0.66 0 1 0 C2.05623151 6.96772074 2.21781266 13.83401881 2.25 20.875 C2.270625 21.99519531 2.29125 23.11539063 2.3125 24.26953125 C2.3497711 32.25486511 2.0992238 40.39819937 -3.3125 46.6875 C-6 48 -6 48 -9 48.125 C-13.16658481 46.5625307 -14.45469423 44.6361511 -17 41 C-19.05834493 34.8249652 -18.02625865 29.83882418 -15.5390625 24.0234375 C-11.26794957 15.63297708 -6.17626799 7.12752355 0 0 Z " fill="#810F43" transform="translate(123,112)"/>
<path d="M0 0 C4.516875 -0.1546875 4.516875 -0.1546875 9.125 -0.3125 C10.06230957 -0.35802002 10.99961914 -0.40354004 11.96533203 -0.45043945 C16.26555928 -0.52142297 19.14069839 -0.3837988 22.5546875 2.39453125 C25.39790945 5.42397061 25.91807845 6.14801586 26.3125 10.25 C25.9439843 14.6721884 24.86805146 16.65393996 22 20 C20.68 20.33 19.36 20.66 18 21 C20.64 25.62 23.28 30.24 26 35 C23.69 35 21.38 35 19 35 C16.99609375 32.41015625 16.99609375 32.41015625 15.4375 29.0625 C13.98551646 25.73085994 13.98551646 25.73085994 12 23 C10.02 22.67 8.04 22.34 6 22 C6 26.29 6 30.58 6 35 C4.02 35 2.04 35 0 35 C0 23.45 0 11.9 0 0 Z M5 5 C5.33 8.96 5.66 12.92 6 17 C13.04468101 17.66177795 13.04468101 17.66177795 19.1875 14.8125 C21.25566791 12.1808983 21.25566791 12.1808983 20.9375 9.3125 C20.11696579 6.8572058 20.11696579 6.8572058 18 5 C14.87185486 4.75639927 14.87185486 4.75639927 11.375 4.875 C9.59222656 4.90207031 9.59222656 4.90207031 7.7734375 4.9296875 C6.40058594 4.96449219 6.40058594 4.96449219 5 5 Z " fill="#000000" transform="translate(222,238)"/>
<path d="M0 0 C2.84625 -0.061875 5.6925 -0.12375 8.625 -0.1875 C9.51010254 -0.21481201 10.39520508 -0.24212402 11.30712891 -0.27026367 C17.03907724 -0.33025368 21.287621 0.46801676 25.64453125 4.53515625 C30.78796515 11.2611852 30.66900109 16.60881485 30 25 C28.00963161 29.61765467 25.46708174 31.74104779 21.09741211 34.17529297 C17.17581862 35.71727211 13.21207476 35.41279904 9.0625 35.25 C6.071875 35.1675 3.08125 35.085 0 35 C0 23.45 0 11.9 0 0 Z M5 5 C5 13.58 5 22.16 5 31 C15.61272112 31.31304716 15.61272112 31.31304716 23.3125 25.75 C25.44915283 22.26804724 26 20.09823789 26 16 C24.17777441 10.1795971 22.39056301 8.23433781 17 5 C13.04 5 9.08 5 5 5 Z " fill="#000000" transform="translate(273,238)"/>
<path d="M0 0 C9.9 0 19.8 0 30 0 C23.25384615 10.11923077 23.25384615 10.11923077 20.421875 13.9296875 C19.81859375 14.744375 19.2153125 15.5590625 18.59375 16.3984375 C17.9853125 17.21570313 17.376875 18.03296875 16.75 18.875 C15.5150378 20.53862676 14.28063792 22.20267114 13.046875 23.8671875 C12.24008301 24.95169189 12.24008301 24.95169189 11.41699219 26.05810547 C10.23648377 27.67591455 9.1109118 29.3336323 8 31 C14.6 31 21.2 31 28 31 C28 32.32 28 33.64 28 35 C18.1 35 8.2 35 -2 35 C4.75462269 24.86806597 4.75462269 24.86806597 7.61328125 21 C8.22107422 20.17628906 8.82886719 19.35257812 9.45507812 18.50390625 C10.06802734 17.67761719 10.68097656 16.85132813 11.3125 16 C11.94478516 15.14277344 12.57707031 14.28554687 13.22851562 13.40234375 C17.8534147 7.1465853 17.8534147 7.1465853 19 6 C12.73 5.67 6.46 5.34 0 5 C0 3.35 0 1.7 0 0 Z " fill="#000000" transform="translate(81,238)"/>
<path d="M0 0 C1.65 0 3.3 0 5 0 C5 10.23 5 20.46 5 31 C10.61 31 16.22 31 22 31 C22 32.32 22 33.64 22 35 C14.74 35 7.48 35 0 35 C0 23.45 0 11.9 0 0 Z " fill="#000000" transform="translate(250,238)"/>
<path d="M0 0 C2.9375 0.75 2.9375 0.75 4.9375 2.75 C5.480879 8.72716895 5.480879 8.72716895 3.875 11.75 C0.70953476 13.38378851 -1.71270286 12.60267564 -5.0625 11.75 C-7.0625 8.75 -7.0625 8.75 -6.875 5.1875 C-5.81721331 0.71224863 -4.63605151 -0.37845318 0 0 Z " fill="#FAEFF0" transform="translate(122.0625,45.25)"/>
<path d="M0 0 C0.33 0 0.66 0 1 0 C1 1.98 1 3.96 1 6 C0.26885986 5.99887207 -0.46228027 5.99774414 -1.21557617 5.99658203 C-4.54048134 6.00871576 -7.8631028 6.06638804 -11.1875 6.125 C-12.33798828 6.12242188 -13.48847656 6.11984375 -14.67382812 6.1171875 C-20.59920072 6.07230559 -20.59920072 6.07230559 -25.88134766 8.32324219 C-27.61172796 10.37180325 -28.80439543 12.60879086 -30 15 C-30.66 15 -31.32 15 -32 15 C-30.60366572 10.55711819 -28.39598172 8.13475236 -25 5 C-24.67 4.67 -24.34 4.34 -24 4 C-22.21928754 3.91273777 -20.4351686 3.89300959 -18.65234375 3.90234375 C-17.57275391 3.90556641 -16.49316406 3.90878906 -15.38085938 3.91210938 C-13.67639648 3.92467773 -13.67639648 3.92467773 -11.9375 3.9375 C-10.22723633 3.94426758 -10.22723633 3.94426758 -8.48242188 3.95117188 C-5.65489649 3.96300253 -2.8274736 3.9794859 0 4 C0 2.68 0 1.36 0 0 Z " fill="#BB445A" transform="translate(257,72)"/>
<path d="M0 0 C1 3 1 3 0.22265625 5.04296875 C-0.16019531 5.75066406 -0.54304687 6.45835938 -0.9375 7.1875 C-1.31777344 7.90292969 -1.69804687 8.61835937 -2.08984375 9.35546875 C-2.54037109 10.16951172 -2.54037109 10.16951172 -3 11 C-3.33 11 -3.66 11 -4 11 C-4 8.69 -4 6.38 -4 4 C-3.34 4 -2.68 4 -2 4 C-1.34 2.68 -0.68 1.36 0 0 Z " fill="#9F1538" transform="translate(173,90)"/>
<path d="M0 0 C0.66 0.33 1.32 0.66 2 1 C1.57847656 1.48210937 1.15695313 1.96421875 0.72265625 2.4609375 C0.17480469 3.09257813 -0.37304688 3.72421875 -0.9375 4.375 C-1.48277344 5.00148438 -2.02804688 5.62796875 -2.58984375 6.2734375 C-4.06958624 7.95632334 -4.06958624 7.95632334 -5 10 C-5.66 10 -6.32 10 -7 10 C-5.6062718 5.56541027 -3.39417765 3.12621626 0 0 Z " fill="#AE2540" transform="translate(232,77)"/>
<path d="M0 0 C1.10844919 3.32534757 0.84454356 5.62182575 0 9 C-0.66 9 -1.32 9 -2 9 C-2.33 6.69 -2.66 4.38 -3 2 C-2.01 2.33 -1.02 2.66 0 3 C0 2.01 0 1.02 0 0 Z " fill="#A72444" transform="translate(209,89)"/>
</svg>
